<mxfile host="Electron" modified="2024-04-14T11:38:21.024Z" agent="Mozilla/5.0 (Macintosh; Intel Mac OS X 10_15_7) AppleWebKit/537.36 (KHTML, like Gecko) draw.io/21.6.5 Chrome/114.0.5735.243 Electron/25.3.1 Safari/537.36" etag="pyOOSkYILHDjCXIXEoym" version="21.6.5" type="device">
  <diagram name="Seite-1" id="WY76_UIT-7cdqhVsJGH5">
    <mxGraphModel dx="954" dy="608" grid="1" gridSize="10" guides="1" tooltips="1" connect="1" arrows="1" fold="1" page="1" pageScale="1" pageWidth="827" pageHeight="1169" math="0" shadow="0">
      <root>
        <mxCell id="0" />
        <mxCell id="1" parent="0" />
        <mxCell id="g-BLfw2waqW90s4DqcR2-60" value="" style="sketch=0;html=1;dashed=0;whitespace=wrap;fillColor=#2875E2;strokeColor=#ffffff;points=[[0.005,0.63,0],[0.1,0.2,0],[0.9,0.2,0],[0.5,0,0],[0.995,0.63,0],[0.72,0.99,0],[0.5,1,0],[0.28,0.99,0]];verticalLabelPosition=bottom;align=center;verticalAlign=top;shape=mxgraph.kubernetes.icon;prIcon=ing" vertex="1" parent="1">
          <mxGeometry x="365" y="72" width="70" height="58" as="geometry" />
        </mxCell>
        <mxCell id="g-BLfw2waqW90s4DqcR2-8" value="" style="rounded=0;whiteSpace=wrap;html=1;" vertex="1" parent="1">
          <mxGeometry x="40" y="120" width="240" height="400" as="geometry" />
        </mxCell>
        <mxCell id="g-BLfw2waqW90s4DqcR2-9" value="" style="rounded=0;whiteSpace=wrap;html=1;" vertex="1" parent="1">
          <mxGeometry x="280" y="120" width="240" height="400" as="geometry" />
        </mxCell>
        <mxCell id="g-BLfw2waqW90s4DqcR2-10" value="" style="rounded=0;whiteSpace=wrap;html=1;" vertex="1" parent="1">
          <mxGeometry x="520" y="120" width="240" height="400" as="geometry" />
        </mxCell>
        <mxCell id="g-BLfw2waqW90s4DqcR2-11" value="Node1" style="text;html=1;strokeColor=none;fillColor=none;align=center;verticalAlign=middle;whiteSpace=wrap;rounded=0;" vertex="1" parent="1">
          <mxGeometry x="40" y="120" width="60" height="30" as="geometry" />
        </mxCell>
        <mxCell id="g-BLfw2waqW90s4DqcR2-12" value="Node2" style="text;html=1;strokeColor=none;fillColor=none;align=center;verticalAlign=middle;whiteSpace=wrap;rounded=0;" vertex="1" parent="1">
          <mxGeometry x="280" y="120" width="60" height="30" as="geometry" />
        </mxCell>
        <mxCell id="g-BLfw2waqW90s4DqcR2-13" value="Node3" style="text;html=1;strokeColor=none;fillColor=none;align=center;verticalAlign=middle;whiteSpace=wrap;rounded=0;" vertex="1" parent="1">
          <mxGeometry x="520" y="120" width="60" height="30" as="geometry" />
        </mxCell>
        <mxCell id="g-BLfw2waqW90s4DqcR2-15" value="Ceph OSD" style="shape=cylinder3;whiteSpace=wrap;html=1;boundedLbl=1;backgroundOutline=1;size=15;" vertex="1" parent="1">
          <mxGeometry x="130" y="510" width="60" height="80" as="geometry" />
        </mxCell>
        <mxCell id="g-BLfw2waqW90s4DqcR2-16" value="Ceph OSD" style="shape=cylinder3;whiteSpace=wrap;html=1;boundedLbl=1;backgroundOutline=1;size=15;" vertex="1" parent="1">
          <mxGeometry x="384" y="510" width="60" height="80" as="geometry" />
        </mxCell>
        <mxCell id="g-BLfw2waqW90s4DqcR2-17" value="Ceph OSD" style="shape=cylinder3;whiteSpace=wrap;html=1;boundedLbl=1;backgroundOutline=1;size=15;" vertex="1" parent="1">
          <mxGeometry x="610" y="510" width="60" height="80" as="geometry" />
        </mxCell>
        <mxCell id="g-BLfw2waqW90s4DqcR2-18" value="" style="shape=flexArrow;endArrow=classic;startArrow=classic;html=1;rounded=0;entryX=0.122;entryY=0.983;entryDx=0;entryDy=0;entryPerimeter=0;" edge="1" parent="1">
          <mxGeometry width="100" height="100" relative="1" as="geometry">
            <mxPoint x="159.5" y="510" as="sourcePoint" />
            <mxPoint x="159.57999999999993" y="458.98" as="targetPoint" />
          </mxGeometry>
        </mxCell>
        <mxCell id="g-BLfw2waqW90s4DqcR2-20" value="" style="shape=flexArrow;endArrow=classic;startArrow=classic;html=1;rounded=0;entryX=0.122;entryY=0.983;entryDx=0;entryDy=0;entryPerimeter=0;" edge="1" parent="1">
          <mxGeometry width="100" height="100" relative="1" as="geometry">
            <mxPoint x="413" y="511.02" as="sourcePoint" />
            <mxPoint x="413.0799999999999" y="460" as="targetPoint" />
          </mxGeometry>
        </mxCell>
        <mxCell id="g-BLfw2waqW90s4DqcR2-21" value="" style="shape=flexArrow;endArrow=classic;startArrow=classic;html=1;rounded=0;entryX=0.122;entryY=0.983;entryDx=0;entryDy=0;entryPerimeter=0;" edge="1" parent="1">
          <mxGeometry width="100" height="100" relative="1" as="geometry">
            <mxPoint x="639.5" y="510" as="sourcePoint" />
            <mxPoint x="639.5799999999999" y="458.98" as="targetPoint" />
          </mxGeometry>
        </mxCell>
        <mxCell id="g-BLfw2waqW90s4DqcR2-26" value="Syncthing &amp;lt;StatefulSet&amp;gt;&lt;br&gt;&lt;br&gt;/var/syncthing" style="rounded=1;whiteSpace=wrap;html=1;" vertex="1" parent="1">
          <mxGeometry x="100" y="290" width="120" height="60" as="geometry" />
        </mxCell>
        <mxCell id="g-BLfw2waqW90s4DqcR2-27" value="" style="shape=flexArrow;endArrow=classic;startArrow=classic;html=1;rounded=0;entryX=0.122;entryY=0.983;entryDx=0;entryDy=0;entryPerimeter=0;" edge="1" parent="1">
          <mxGeometry width="100" height="100" relative="1" as="geometry">
            <mxPoint x="159.5" y="400" as="sourcePoint" />
            <mxPoint x="159.57999999999993" y="348.98" as="targetPoint" />
          </mxGeometry>
        </mxCell>
        <mxCell id="g-BLfw2waqW90s4DqcR2-28" value="" style="group" vertex="1" connectable="0" parent="1">
          <mxGeometry x="80" y="400" width="640" height="60" as="geometry" />
        </mxCell>
        <mxCell id="g-BLfw2waqW90s4DqcR2-14" value="" style="rounded=1;whiteSpace=wrap;html=1;" vertex="1" parent="g-BLfw2waqW90s4DqcR2-28">
          <mxGeometry width="640" height="60" as="geometry" />
        </mxCell>
        <mxCell id="g-BLfw2waqW90s4DqcR2-22" value="" style="endArrow=none;dashed=1;html=1;rounded=0;entryX=1;entryY=0.5;entryDx=0;entryDy=0;exitX=0;exitY=0.5;exitDx=0;exitDy=0;" edge="1" parent="g-BLfw2waqW90s4DqcR2-28" source="g-BLfw2waqW90s4DqcR2-14" target="g-BLfw2waqW90s4DqcR2-14">
          <mxGeometry width="50" height="50" relative="1" as="geometry">
            <mxPoint x="300" y="-20" as="sourcePoint" />
            <mxPoint x="350" y="-70" as="targetPoint" />
          </mxGeometry>
        </mxCell>
        <mxCell id="g-BLfw2waqW90s4DqcR2-24" value="&lt;meta charset=&quot;utf-8&quot;&gt;&lt;span style=&quot;color: rgb(0, 0, 0); font-family: Helvetica; font-size: 12px; font-style: normal; font-variant-ligatures: normal; font-variant-caps: normal; font-weight: 400; letter-spacing: normal; orphans: 2; text-align: center; text-indent: 0px; text-transform: none; widows: 2; word-spacing: 0px; -webkit-text-stroke-width: 0px; background-color: rgb(251, 251, 251); text-decoration-thickness: initial; text-decoration-style: initial; text-decoration-color: initial; float: none; display: inline !important;&quot;&gt;PVC &quot;syncthing-pv-claim&quot; (RWO)&lt;/span&gt;" style="text;html=1;strokeColor=none;fillColor=none;align=center;verticalAlign=middle;whiteSpace=wrap;rounded=0;" vertex="1" parent="g-BLfw2waqW90s4DqcR2-28">
          <mxGeometry x="210" width="220" height="30" as="geometry" />
        </mxCell>
        <mxCell id="g-BLfw2waqW90s4DqcR2-25" value="&lt;span style=&quot;color: rgb(0, 0, 0); font-family: Helvetica; font-size: 12px; font-style: normal; font-variant-ligatures: normal; font-variant-caps: normal; font-weight: 400; letter-spacing: normal; orphans: 2; text-align: center; text-indent: 0px; text-transform: none; widows: 2; word-spacing: 0px; -webkit-text-stroke-width: 0px; background-color: rgb(251, 251, 251); text-decoration-thickness: initial; text-decoration-style: initial; text-decoration-color: initial; float: none; display: inline !important;&quot;&gt;Rook Operator + Components&lt;br&gt;&lt;/span&gt;" style="text;html=1;strokeColor=none;fillColor=none;align=center;verticalAlign=middle;whiteSpace=wrap;rounded=0;" vertex="1" parent="g-BLfw2waqW90s4DqcR2-28">
          <mxGeometry x="210" y="30" width="220" height="30" as="geometry" />
        </mxCell>
        <mxCell id="g-BLfw2waqW90s4DqcR2-39" value="" style="sketch=0;html=1;dashed=0;whitespace=wrap;fillColor=#2875E2;strokeColor=#ffffff;points=[[0.005,0.63,0],[0.1,0.2,0],[0.9,0.2,0],[0.5,0,0],[0.995,0.63,0],[0.72,0.99,0],[0.5,1,0],[0.28,0.99,0]];verticalLabelPosition=bottom;align=center;verticalAlign=top;shape=mxgraph.kubernetes.icon;prIcon=pv" vertex="1" parent="g-BLfw2waqW90s4DqcR2-28">
          <mxGeometry x="90" y="-30" width="50" height="48" as="geometry" />
        </mxCell>
        <mxCell id="g-BLfw2waqW90s4DqcR2-42" value="" style="sketch=0;html=1;dashed=0;whitespace=wrap;fillColor=#2875E2;strokeColor=#ffffff;points=[[0.005,0.63,0],[0.1,0.2,0],[0.9,0.2,0],[0.5,0,0],[0.995,0.63,0],[0.72,0.99,0],[0.5,1,0],[0.28,0.99,0]];verticalLabelPosition=bottom;align=center;verticalAlign=top;shape=mxgraph.kubernetes.icon;prIcon=pvc" vertex="1" parent="g-BLfw2waqW90s4DqcR2-28">
          <mxGeometry x="420" width="30" height="30" as="geometry" />
        </mxCell>
        <mxCell id="g-BLfw2waqW90s4DqcR2-34" style="rounded=0;orthogonalLoop=1;jettySize=auto;html=1;strokeWidth=1;dashed=1;endArrow=none;endFill=0;dashPattern=1 1;" edge="1" parent="1" source="g-BLfw2waqW90s4DqcR2-30" target="g-BLfw2waqW90s4DqcR2-26">
          <mxGeometry relative="1" as="geometry" />
        </mxCell>
        <mxCell id="g-BLfw2waqW90s4DqcR2-30" value="&amp;lt;Service&amp;gt;&lt;br&gt;TCP/8384" style="ellipse;whiteSpace=wrap;html=1;" vertex="1" parent="1">
          <mxGeometry x="110" y="240" width="70" height="40" as="geometry" />
        </mxCell>
        <mxCell id="g-BLfw2waqW90s4DqcR2-32" value="&amp;lt;Service&amp;gt;&lt;br&gt;UDP/22000" style="ellipse;whiteSpace=wrap;html=1;" vertex="1" parent="1">
          <mxGeometry x="340" y="240" width="70" height="40" as="geometry" />
        </mxCell>
        <mxCell id="g-BLfw2waqW90s4DqcR2-35" style="rounded=0;orthogonalLoop=1;jettySize=auto;html=1;strokeWidth=1;dashed=1;endArrow=none;endFill=0;dashPattern=1 1;" edge="1" parent="1" source="g-BLfw2waqW90s4DqcR2-31" target="g-BLfw2waqW90s4DqcR2-26">
          <mxGeometry relative="1" as="geometry">
            <mxPoint x="145" y="270" as="sourcePoint" />
            <mxPoint x="140" y="300" as="targetPoint" />
          </mxGeometry>
        </mxCell>
        <mxCell id="g-BLfw2waqW90s4DqcR2-36" style="rounded=0;orthogonalLoop=1;jettySize=auto;html=1;strokeWidth=1;dashed=1;endArrow=none;endFill=0;dashPattern=1 1;" edge="1" parent="1" source="g-BLfw2waqW90s4DqcR2-32" target="g-BLfw2waqW90s4DqcR2-26">
          <mxGeometry relative="1" as="geometry">
            <mxPoint x="240" y="268" as="sourcePoint" />
            <mxPoint x="204" y="300" as="targetPoint" />
          </mxGeometry>
        </mxCell>
        <mxCell id="g-BLfw2waqW90s4DqcR2-37" style="rounded=0;orthogonalLoop=1;jettySize=auto;html=1;strokeWidth=1;dashed=1;endArrow=none;endFill=0;dashPattern=1 1;" edge="1" parent="1" source="g-BLfw2waqW90s4DqcR2-33" target="g-BLfw2waqW90s4DqcR2-26">
          <mxGeometry relative="1" as="geometry">
            <mxPoint x="320" y="266" as="sourcePoint" />
            <mxPoint x="230" y="304" as="targetPoint" />
          </mxGeometry>
        </mxCell>
        <mxCell id="g-BLfw2waqW90s4DqcR2-38" value="" style="sketch=0;html=1;dashed=0;whitespace=wrap;fillColor=#2875E2;strokeColor=#ffffff;points=[[0.005,0.63,0],[0.1,0.2,0],[0.9,0.2,0],[0.5,0,0],[0.995,0.63,0],[0.72,0.99,0],[0.5,1,0],[0.28,0.99,0]];verticalLabelPosition=bottom;align=center;verticalAlign=top;shape=mxgraph.kubernetes.icon;prIcon=node" vertex="1" parent="1">
          <mxGeometry x="100" y="120" width="50" height="48" as="geometry" />
        </mxCell>
        <mxCell id="g-BLfw2waqW90s4DqcR2-31" value="&amp;lt;Service&amp;gt;&lt;br&gt;TCP/22000" style="ellipse;whiteSpace=wrap;html=1;" vertex="1" parent="1">
          <mxGeometry x="230" y="240" width="70" height="40" as="geometry" />
        </mxCell>
        <mxCell id="g-BLfw2waqW90s4DqcR2-33" value="&amp;lt;Service&amp;gt;&lt;br&gt;UDP/21027" style="ellipse;whiteSpace=wrap;html=1;" vertex="1" parent="1">
          <mxGeometry x="510" y="240" width="70" height="40" as="geometry" />
        </mxCell>
        <mxCell id="g-BLfw2waqW90s4DqcR2-45" value="" style="group" vertex="1" connectable="0" parent="1">
          <mxGeometry x="160" y="150" width="480" height="40" as="geometry" />
        </mxCell>
        <mxCell id="g-BLfw2waqW90s4DqcR2-41" value="" style="sketch=0;html=1;dashed=0;whitespace=wrap;fillColor=#2875E2;strokeColor=#ffffff;points=[[0.005,0.63,0],[0.1,0.2,0],[0.9,0.2,0],[0.5,0,0],[0.995,0.63,0],[0.72,0.99,0],[0.5,1,0],[0.28,0.99,0]];verticalLabelPosition=bottom;align=center;verticalAlign=top;shape=mxgraph.kubernetes.icon;prIcon=node" vertex="1" parent="g-BLfw2waqW90s4DqcR2-45">
          <mxGeometry x="420" y="-30" width="50" height="48" as="geometry" />
        </mxCell>
        <mxCell id="g-BLfw2waqW90s4DqcR2-40" value="" style="sketch=0;html=1;dashed=0;whitespace=wrap;fillColor=#2875E2;strokeColor=#ffffff;points=[[0.005,0.63,0],[0.1,0.2,0],[0.9,0.2,0],[0.5,0,0],[0.995,0.63,0],[0.72,0.99,0],[0.5,1,0],[0.28,0.99,0]];verticalLabelPosition=bottom;align=center;verticalAlign=top;shape=mxgraph.kubernetes.icon;prIcon=node" vertex="1" parent="g-BLfw2waqW90s4DqcR2-45">
          <mxGeometry x="180" y="-30" width="50" height="48" as="geometry" />
        </mxCell>
        <mxCell id="g-BLfw2waqW90s4DqcR2-43" value="Traefik&lt;br&gt;&amp;lt;Ingress Gateway&amp;gt;" style="rounded=1;whiteSpace=wrap;html=1;" vertex="1" parent="g-BLfw2waqW90s4DqcR2-45">
          <mxGeometry width="480" height="40" as="geometry" />
        </mxCell>
        <mxCell id="g-BLfw2waqW90s4DqcR2-44" value="" style="sketch=0;html=1;dashed=0;whitespace=wrap;fillColor=#2875E2;strokeColor=#ffffff;points=[[0.005,0.63,0],[0.1,0.2,0],[0.9,0.2,0],[0.5,0,0],[0.995,0.63,0],[0.72,0.99,0],[0.5,1,0],[0.28,0.99,0]];verticalLabelPosition=bottom;align=center;verticalAlign=top;shape=mxgraph.kubernetes.icon;prIcon=ing" vertex="1" parent="g-BLfw2waqW90s4DqcR2-45">
          <mxGeometry x="360" width="120" height="20" as="geometry" />
        </mxCell>
        <mxCell id="g-BLfw2waqW90s4DqcR2-46" value="IngressRoute&lt;br&gt;&quot;syncthing-dashboard&quot;" style="endArrow=classic;startArrow=classic;html=1;rounded=0;entryX=0;entryY=1;entryDx=0;entryDy=0;" edge="1" parent="1" source="g-BLfw2waqW90s4DqcR2-30" target="g-BLfw2waqW90s4DqcR2-43">
          <mxGeometry x="-0.0652" y="13" width="50" height="50" relative="1" as="geometry">
            <mxPoint x="135" y="260" as="sourcePoint" />
            <mxPoint x="185" y="210" as="targetPoint" />
            <mxPoint as="offset" />
          </mxGeometry>
        </mxCell>
        <mxCell id="g-BLfw2waqW90s4DqcR2-47" value="" style="endArrow=classic;startArrow=classic;html=1;rounded=0;entryX=0.25;entryY=1;entryDx=0;entryDy=0;" edge="1" parent="1" source="g-BLfw2waqW90s4DqcR2-31" target="g-BLfw2waqW90s4DqcR2-43">
          <mxGeometry width="50" height="50" relative="1" as="geometry">
            <mxPoint x="187" y="262" as="sourcePoint" />
            <mxPoint x="350" y="220" as="targetPoint" />
          </mxGeometry>
        </mxCell>
        <mxCell id="g-BLfw2waqW90s4DqcR2-52" value="IngressRouteTCP&lt;br&gt;&quot;syncthing-tcp&quot;" style="edgeLabel;html=1;align=center;verticalAlign=middle;resizable=0;points=[];" vertex="1" connectable="0" parent="g-BLfw2waqW90s4DqcR2-47">
          <mxGeometry x="0.0358" y="1" relative="1" as="geometry">
            <mxPoint as="offset" />
          </mxGeometry>
        </mxCell>
        <mxCell id="g-BLfw2waqW90s4DqcR2-48" value="" style="endArrow=classic;startArrow=classic;html=1;rounded=0;entryX=0.75;entryY=1;entryDx=0;entryDy=0;" edge="1" parent="1" source="g-BLfw2waqW90s4DqcR2-32" target="g-BLfw2waqW90s4DqcR2-43">
          <mxGeometry width="50" height="50" relative="1" as="geometry">
            <mxPoint x="302" y="257" as="sourcePoint" />
            <mxPoint x="380" y="220" as="targetPoint" />
          </mxGeometry>
        </mxCell>
        <mxCell id="g-BLfw2waqW90s4DqcR2-53" value="IngressRouteUDP&lt;br&gt;&quot;syncthing-udp&quot;" style="edgeLabel;html=1;align=center;verticalAlign=middle;resizable=0;points=[];" vertex="1" connectable="0" parent="g-BLfw2waqW90s4DqcR2-48">
          <mxGeometry x="0.0603" y="-1" relative="1" as="geometry">
            <mxPoint as="offset" />
          </mxGeometry>
        </mxCell>
        <mxCell id="g-BLfw2waqW90s4DqcR2-49" value="" style="endArrow=classic;startArrow=classic;html=1;rounded=0;entryX=1;entryY=1;entryDx=0;entryDy=0;" edge="1" parent="1" source="g-BLfw2waqW90s4DqcR2-33" target="g-BLfw2waqW90s4DqcR2-43">
          <mxGeometry width="50" height="50" relative="1" as="geometry">
            <mxPoint x="404" y="253" as="sourcePoint" />
            <mxPoint x="440" y="220" as="targetPoint" />
          </mxGeometry>
        </mxCell>
        <mxCell id="g-BLfw2waqW90s4DqcR2-54" value="IngressRouteUDP&lt;br&gt;&quot;syncthing-disc&quot;" style="edgeLabel;html=1;align=center;verticalAlign=middle;resizable=0;points=[];" vertex="1" connectable="0" parent="g-BLfw2waqW90s4DqcR2-49">
          <mxGeometry x="-0.0724" y="3" relative="1" as="geometry">
            <mxPoint x="1" as="offset" />
          </mxGeometry>
        </mxCell>
        <mxCell id="g-BLfw2waqW90s4DqcR2-55" value="k3s ServiceLB (formerly Klipper LoadBalancer)" style="rounded=1;whiteSpace=wrap;html=1;verticalAlign=bottom;" vertex="1" parent="1">
          <mxGeometry x="40" y="40" width="720" height="40" as="geometry" />
        </mxCell>
        <mxCell id="g-BLfw2waqW90s4DqcR2-56" value="TCP/443 websecure" style="shape=hexagon;perimeter=hexagonPerimeter2;whiteSpace=wrap;html=1;fixedSize=1;size=10;" vertex="1" parent="1">
          <mxGeometry x="150" y="20" width="80" height="40" as="geometry" />
        </mxCell>
        <mxCell id="g-BLfw2waqW90s4DqcR2-57" value="TCP/22000 syncthing-tcp" style="shape=hexagon;perimeter=hexagonPerimeter2;whiteSpace=wrap;html=1;fixedSize=1;size=10;" vertex="1" parent="1">
          <mxGeometry x="290" y="20" width="80" height="40" as="geometry" />
        </mxCell>
        <mxCell id="g-BLfw2waqW90s4DqcR2-58" value="UDP/22000 syncthing-udp" style="shape=hexagon;perimeter=hexagonPerimeter2;whiteSpace=wrap;html=1;fixedSize=1;size=10;" vertex="1" parent="1">
          <mxGeometry x="430" y="20" width="80" height="40" as="geometry" />
        </mxCell>
        <mxCell id="g-BLfw2waqW90s4DqcR2-59" value="UDP/21027 syncthing-disc" style="shape=hexagon;perimeter=hexagonPerimeter2;whiteSpace=wrap;html=1;fixedSize=1;size=10;" vertex="1" parent="1">
          <mxGeometry x="570" y="20" width="80" height="40" as="geometry" />
        </mxCell>
        <mxCell id="g-BLfw2waqW90s4DqcR2-63" style="rounded=0;orthogonalLoop=1;jettySize=auto;html=1;exitX=0;exitY=0;exitDx=0;exitDy=0;startArrow=classic;startFill=1;" edge="1" parent="1" source="g-BLfw2waqW90s4DqcR2-43">
          <mxGeometry relative="1" as="geometry">
            <mxPoint x="190" y="60" as="targetPoint" />
          </mxGeometry>
        </mxCell>
        <mxCell id="g-BLfw2waqW90s4DqcR2-64" style="rounded=0;orthogonalLoop=1;jettySize=auto;html=1;exitX=0.25;exitY=0;exitDx=0;exitDy=0;startArrow=classic;startFill=1;" edge="1" parent="1" source="g-BLfw2waqW90s4DqcR2-43" target="g-BLfw2waqW90s4DqcR2-57">
          <mxGeometry relative="1" as="geometry">
            <mxPoint x="295" y="150" as="sourcePoint" />
            <mxPoint x="325" y="60" as="targetPoint" />
          </mxGeometry>
        </mxCell>
        <mxCell id="g-BLfw2waqW90s4DqcR2-65" style="rounded=0;orthogonalLoop=1;jettySize=auto;html=1;exitX=0.75;exitY=0;exitDx=0;exitDy=0;startArrow=classic;startFill=1;" edge="1" parent="1" source="g-BLfw2waqW90s4DqcR2-43" target="g-BLfw2waqW90s4DqcR2-58">
          <mxGeometry relative="1" as="geometry">
            <mxPoint x="290" y="160" as="sourcePoint" />
            <mxPoint x="331" y="70" as="targetPoint" />
          </mxGeometry>
        </mxCell>
        <mxCell id="g-BLfw2waqW90s4DqcR2-66" style="rounded=0;orthogonalLoop=1;jettySize=auto;html=1;exitX=1;exitY=0;exitDx=0;exitDy=0;startArrow=classic;startFill=1;" edge="1" parent="1" source="g-BLfw2waqW90s4DqcR2-43" target="g-BLfw2waqW90s4DqcR2-59">
          <mxGeometry relative="1" as="geometry">
            <mxPoint x="530" y="160" as="sourcePoint" />
            <mxPoint x="489" y="70" as="targetPoint" />
          </mxGeometry>
        </mxCell>
      </root>
    </mxGraphModel>
  </diagram>
</mxfile>
